<svg width="16" height="16" viewBox="0 0 16 16" fill="none" xmlns="http://www.w3.org/2000/svg">
<ellipse cx="11.508" cy="7.4128" rx="0.895725" ry="0.908898" fill="white"/>
<path fill-rule="evenodd" clip-rule="evenodd" d="M9.33203 8.30356C9.7471 8.2195 10.0596 7.85262 10.0596 7.41276C10.0596 7.07196 9.87198 6.77496 9.59444 6.61938L9.33203 8.30356Z" fill="white"/>
<path fill-rule="evenodd" clip-rule="evenodd" d="M9.68688 3.06825C9.74126 2.7164 9.46852 2.39916 9.11249 2.40015L8.34021 2.40228C8.05546 2.40307 7.81346 2.61059 7.76925 2.89189L7.63597 3.74003C7.58071 4.09169 7.85256 4.40959 8.20853 4.40959H8.9827C9.26862 4.40959 9.51182 4.20109 9.55548 3.91852L9.68688 3.06825ZM9.27457 5.73632C9.32884 5.38511 9.05716 5.06821 8.70178 5.06821H7.92287C7.63751 5.06821 7.39461 5.27592 7.35031 5.55782L6.4034 11.5835C6.34803 11.9358 6.62094 12.2541 6.97756 12.2531L7.77253 12.2509C8.05784 12.2501 8.30013 12.0418 8.34371 11.7598L9.27457 5.73632Z" fill="white"/>
<path fill-rule="evenodd" clip-rule="evenodd" d="M5.06295 2.4978H7.40697L7.09854 4.40332H5.02777C4.45082 4.40332 3.91285 4.57016 3.45945 4.85823L6.76515 6.46526L6.48525 8.19452L2.40976 6.01815C2.21114 6.41322 2.09932 6.85943 2.09932 7.33177C2.09932 8.9491 3.41043 10.2602 5.02776 10.2602H6.15054L5.8422 12.1652H5.06295C2.39337 12.1652 0.229248 10.0011 0.229248 7.33151C0.229248 4.66193 2.39337 2.4978 5.06295 2.4978Z" fill="white"/>
<path fill-rule="evenodd" clip-rule="evenodd" d="M10.6921 10.26H11.0069C12.6243 10.26 13.9354 8.94885 13.9354 7.33151C13.9354 5.71417 12.6243 4.40306 11.0069 4.40306H9.93926L10.2361 2.4978H10.9718C13.6414 2.4978 15.8056 4.66193 15.8056 7.33151C15.8056 10.0011 13.6414 12.1652 10.9718 12.1652H9.7268L8.29053 15.0002L8.73152 12.1652H8.72984L9.0267 10.26H9.02789L9.02818 10.2581H10.693L10.6921 10.26Z" fill="white"/>
</svg>
